<mxfile host="app.diagrams.net" agent="Mozilla/5.0 (Macintosh; Intel Mac OS X 10_15_7) AppleWebKit/537.36 (KHTML, like Gecko) Chrome/131.0.0.0 Safari/537.36" version="24.7.17">
  <diagram name="第 1 页" id="IndWA9PdhRf0yPXgvHr3">
    <mxGraphModel dx="1242" dy="709" grid="1" gridSize="10" guides="1" tooltips="1" connect="1" arrows="1" fold="1" page="0" pageScale="1" pageWidth="827" pageHeight="1169" math="0" shadow="0">
      <root>
        <mxCell id="0" />
        <mxCell id="1" parent="0" />
        <mxCell id="3o7RCABlKHHYoRjUQL8c-1" value="展现层" style="rounded=0;whiteSpace=wrap;html=1;shadow=0;glass=0;fillStyle=auto;fillColor=#d5e8d4;strokeColor=#82b366;sketch=1;curveFitting=1;jiggle=2;verticalAlign=top;align=left;" vertex="1" parent="1">
          <mxGeometry x="20" y="90" width="600" height="90" as="geometry" />
        </mxCell>
        <mxCell id="3o7RCABlKHHYoRjUQL8c-2" value="应用层&lt;div&gt;&lt;br&gt;&lt;/div&gt;&lt;div&gt;&lt;br&gt;&lt;/div&gt;" style="rounded=0;whiteSpace=wrap;html=1;shadow=0;glass=0;fillStyle=auto;fillColor=#d5e8d4;strokeColor=#82b366;sketch=1;curveFitting=1;jiggle=2;verticalAlign=top;align=left;" vertex="1" parent="1">
          <mxGeometry x="20" y="200" width="600" height="90" as="geometry" />
        </mxCell>
        <mxCell id="3o7RCABlKHHYoRjUQL8c-3" value="领域" style="rounded=0;whiteSpace=wrap;html=1;shadow=0;glass=0;fillStyle=auto;fillColor=#d5e8d4;strokeColor=#82b366;sketch=1;curveFitting=1;jiggle=2;verticalAlign=top;align=left;" vertex="1" parent="1">
          <mxGeometry x="20" y="310" width="600" height="90" as="geometry" />
        </mxCell>
        <mxCell id="3o7RCABlKHHYoRjUQL8c-7" value="展现层" style="rounded=0;whiteSpace=wrap;html=1;shadow=0;glass=0;fillStyle=auto;fillColor=#d5e8d4;strokeColor=#82b366;sketch=1;curveFitting=1;jiggle=2;verticalAlign=top;align=left;" vertex="1" parent="1">
          <mxGeometry x="730" y="80" width="600" height="90" as="geometry" />
        </mxCell>
        <mxCell id="3o7RCABlKHHYoRjUQL8c-8" value="展现层" style="rounded=0;whiteSpace=wrap;html=1;shadow=0;glass=0;fillStyle=auto;fillColor=#d5e8d4;strokeColor=#82b366;sketch=1;curveFitting=1;jiggle=2;verticalAlign=top;align=left;" vertex="1" parent="1">
          <mxGeometry x="730" y="190" width="600" height="90" as="geometry" />
        </mxCell>
        <mxCell id="3o7RCABlKHHYoRjUQL8c-9" value="展现层" style="rounded=0;whiteSpace=wrap;html=1;shadow=0;glass=0;fillStyle=auto;fillColor=#d5e8d4;strokeColor=#82b366;sketch=1;curveFitting=1;jiggle=2;verticalAlign=top;align=left;" vertex="1" parent="1">
          <mxGeometry x="730" y="300" width="600" height="90" as="geometry" />
        </mxCell>
        <mxCell id="3o7RCABlKHHYoRjUQL8c-10" value="RS-IOS|安卓" style="rounded=1;whiteSpace=wrap;html=1;" vertex="1" parent="1">
          <mxGeometry x="100" y="110" width="420" height="50" as="geometry" />
        </mxCell>
        <mxCell id="3o7RCABlKHHYoRjUQL8c-13" value="首页数据" style="rounded=0;whiteSpace=wrap;html=1;" vertex="1" parent="1">
          <mxGeometry x="60" y="230" width="90" height="40" as="geometry" />
        </mxCell>
        <mxCell id="3o7RCABlKHHYoRjUQL8c-14" value="排行榜" style="rounded=0;whiteSpace=wrap;html=1;" vertex="1" parent="1">
          <mxGeometry x="180" y="230" width="90" height="40" as="geometry" />
        </mxCell>
        <mxCell id="3o7RCABlKHHYoRjUQL8c-15" value="销售战报" style="rounded=0;whiteSpace=wrap;html=1;" vertex="1" parent="1">
          <mxGeometry x="300" y="230" width="90" height="40" as="geometry" />
        </mxCell>
      </root>
    </mxGraphModel>
  </diagram>
</mxfile>
